Coordinates
version=1
nRows=14
nColumns=24
inDegrees=yes

Units are S.I. units (second, meters, Newtons, ...)
Angles are in degrees.

endheader
time	pelvis_tilt	pelvis_list	pelvis_rotation	pelvis_tx	pelvis_ty	pelvis_tz	hip_flexion_r	hip_adduction_r	hip_rotation_r	knee_angle_r	ankle_angle_r	subtalar_angle_r	mtp_angle_r	hip_flexion_l	hip_adduction_l	hip_rotation_l	knee_angle_l	ankle_angle_l	subtalar_angle_l	mtp_angle_l	lumbar_extension	lumbar_bending	lumbar_rotation
      0.01000000	     92.24956455	     36.11620930	    -91.26239886	      1.02467199	      0.28473654	      1.07675572	     24.00393292	     -7.64716842	     -6.50813498	    -15.54253093	    -13.16409212	      0.00000000	      0.00000000	     13.76875648	     -6.38823845	     -4.39365319	    -70.79380405	    -11.64485013	      0.00000000	      0.00000000	      0.00000000	      0.00000000	      0.00000000
      0.02000000	     92.25771063	     36.11811530	    -91.25450179	      1.02464620	      0.28463248	      1.07665146	     24.00464598	     -7.66150797	     -6.50087620	    -15.54812225	    -13.15276779	      0.00000000	      0.00000000	     13.78746093	     -6.42260942	     -4.45417300	    -70.83528072	    -11.63637734	      0.00000000	      0.00000000	      0.00000000	      0.00000000	      0.00000000
      0.03000000	     92.26432437	     36.13030338	    -91.25499355	      1.02463657	      0.28458098	      1.07660896	     24.01494867	     -7.66766250	     -6.49390422	    -15.54471301	    -13.14113996	      0.00000000	      0.00000000	     13.79914341	     -6.42030921	     -4.46341408	    -70.84139196	    -11.62383054	      0.00000000	      0.00000000	      0.00000000	      0.00000000	      0.00000000
      0.04000000	     92.27111303	     36.14826529	    -91.25822548	      1.02463461	      0.28457242	      1.07660640	     24.02974196	     -7.67117851	     -6.48750804	    -15.53582354	    -13.13164312	      0.00000000	      0.00000000	     13.80750994	     -6.39657783	     -4.44243500	    -70.82725407	    -11.61106723	      0.00000000	      0.00000000	      0.00000000	      0.00000000	      0.00000000
      0.05000000	     92.27890887	     36.16720213	    -91.25988034	      1.02462526	      0.28458366	      1.07661569	     24.04408312	     -7.67644838	     -6.48294705	    -15.52598348	    -13.12758042	      0.00000000	      0.00000000	     13.81519299	     -6.36624963	     -4.41235915	    -70.80813196	    -11.60173298	      0.00000000	      0.00000000	      0.00000000	      0.00000000	      0.00000000
      0.06000000	     92.28751219	     36.18274920	    -91.25895512	      1.02461275	      0.28459989	      1.07662733	     24.05496466	     -7.68501645	     -6.48236513	    -15.51998267	    -13.13241412	      0.00000000	      0.00000000	     13.82289706	     -6.33958385	     -4.38799812	    -70.79456792	    -11.59771938	      0.00000000	      0.00000000	      0.00000000	      0.00000000	      0.00000000
      0.07000000	     92.29607152	     36.19171762	    -91.25738611	      1.02461130	      0.28461651	      1.07664277	     24.06210242	     -7.69596022	     -6.48775288	    -15.52194436	    -13.14871006	      0.00000000	      0.00000000	     13.82923063	     -6.32118835	     -4.37582981	    -70.79083124	    -11.59866720	      0.00000000	      0.00000000	      0.00000000	      0.00000000	      0.00000000
      0.08000000	     92.30367497	     36.19266313	    -91.25798795	      1.02461860	      0.28462873	      1.07664973	     24.06770078	     -7.70714262	     -6.49925196	    -15.53392667	    -13.17656914	      0.00000000	      0.00000000	     13.83137650	     -6.31110776	     -4.37530484	    -70.79599799	    -11.60248823	      0.00000000	      0.00000000	      0.00000000	      0.00000000	      0.00000000
      0.09000000	     92.30984113	     36.18599559	    -91.26204968	      1.02461840	      0.28462974	      1.07662574	     24.07474341	     -7.71618765	     -6.51360630	    -15.55442513	    -13.21174867	      0.00000000	      0.00000000	     13.82726642	     -6.30706038	     -4.38209622	    -70.80628118	    -11.60647318	      0.00000000	      0.00000000	      0.00000000	      0.00000000	      0.00000000
      0.10000000	     92.31423218	     36.17470152	    -91.26824942	      1.02460106	      0.28461553	      1.07657298	     24.08377722	     -7.72095336	     -6.52372712	    -15.57766069	    -13.24424859	      0.00000000	      0.00000000	     13.81831252	     -6.30656951	     -4.39133607	    -70.81736135	    -11.60840518	      0.00000000	      0.00000000	      0.00000000	      0.00000000	      0.00000000
      0.11000000	     92.31576967	     36.16564814	    -91.27371506	      1.02457936	      0.28459591	      1.07654655	     24.08993890	     -7.71984195	     -6.52011573	    -15.59426123	    -13.25852969	      0.00000000	      0.00000000	     13.81081759	     -6.30849937	     -4.39922529	    -70.82591080	    -11.60723191	      0.00000000	      0.00000000	      0.00000000	      0.00000000	      0.00000000
      0.12000000	     92.31204280	     36.16931087	    -91.27612503	      1.02458768	      0.28459097	      1.07661035	     24.08392207	     -7.71210889	     -6.49430575	    -15.59298358	    -13.23637913	      0.00000000	      0.00000000	     13.81409139	     -6.31366449	     -4.40294767	    -70.83021381	    -11.60318949	      0.00000000	      0.00000000	      0.00000000	      0.00000000	      0.00000000
      0.13000000	     92.30012946	     36.19489197	    -91.27432784	      1.02465038	      0.28460073	      1.07672697	     24.06023998	     -7.69764005	     -6.44348958	    -15.56246903	    -13.16262850	      0.00000000	      0.00000000	     13.83467534	     -6.32398992	     -4.40035038	    -70.83055733	    -11.59756178	      0.00000000	      0.00000000	      0.00000000	      0.00000000	      0.00000000
      0.14000000	     92.27946784	     36.24023288	    -91.26633704	      1.02473718	      0.28458580	      1.07673920	     24.03016449	     -7.67536360	     -6.37431222	    -15.49338326	    -13.03258146	      0.00000000	      0.00000000	     13.87022784	     -6.34046931	     -4.39077150	    -70.82949833	    -11.59224165	      0.00000000	      0.00000000	      0.00000000	      0.00000000	      0.00000000
